<svg xmlns="http://www.w3.org/2000/svg" fill="none" viewBox="0 0 155 31">
                    <path fill="#002133" fill-rule="evenodd" d="M75.212 13.91h-5.178c-.677 0-1.208.513-1.208 1.168 0 .668.53 1.191 1.208 1.191h4.215v3.484c-.776.704-2.267 1.504-3.994 1.504-3.38 0-5.834-2.51-5.834-5.971 0-3.447 2.453-5.948 5.834-5.948 1.475 0 2.948.586 3.935 1.564.244.261.572.405.924.405a1.25 1.25 0 0 0 1.257-1.24c0-.363-.126-.68-.338-.862-1.495-1.472-3.493-2.25-5.778-2.25-5.023 0-8.668 3.503-8.668 8.33 0 4.842 3.645 8.355 8.668 8.355 4.157 0 6.73-2.182 6.73-4.204V15.6c0-.932-.796-1.69-1.773-1.69ZM56.27 8.276c0-.721.627-1.308 1.398-1.308.718 0 1.325.599 1.325 1.308v14.032c0 .734-.616 1.332-1.373 1.332-.745 0-1.35-.598-1.35-1.332V8.276Zm-6.085 0c0-.734.626-1.308 1.424-1.308.718 0 1.325.599 1.325 1.308v14.032c0 .734-.617 1.332-1.374 1.332-.758 0-1.375-.598-1.375-1.332v-6.022h-8.71v6.022c0 .734-.617 1.332-1.375 1.332-.743 0-1.349-.598-1.349-1.332V8.276c0-.721.628-1.308 1.399-1.308.718 0 1.325.599 1.325 1.308v5.587h8.71V8.276Zm41.048 0c0-.734.625-1.308 1.423-1.308.719 0 1.326.599 1.326 1.308v14.032c0 .734-.617 1.332-1.374 1.332-.758 0-1.375-.598-1.375-1.332v-6.022h-8.71v6.022c0 .734-.617 1.332-1.375 1.332-.744 0-1.349-.598-1.349-1.332V8.276c0-.721.627-1.308 1.398-1.308.719 0 1.325.599 1.325 1.308v5.587h8.711V8.276Zm11.995 5.398c-1.931-.5-3.6-.932-3.6-2.218 0-1.277 1.167-2.135 2.902-2.135 1.439 0 2.791.426 3.907 1.231.211.155.482.244.744.244.699 0 1.289-.57 1.289-1.243 0-.337-.133-.646-.363-.847-1.196-1.08-3.259-1.752-5.383-1.752-3.4 0-5.868 1.963-5.868 4.668 0 3.282 2.979 4.059 5.607 4.744 2.086.545 3.889 1.015 3.889 2.583 0 1.072-.887 2.325-3.386 2.325-1.972 0-3.42-.86-4.293-1.588-.205-.15-.5-.244-.77-.244-.781 0-1.265.682-1.265 1.314 0 .304.117.602.336.844 1.327 1.277 3.531 2.04 5.895 2.04 4.613 0 6.256-2.546 6.256-4.93 0-3.509-3.27-4.356-5.897-5.036Zm10.284-6.72h5.208c3.127 0 5.311 2.115 5.311 5.142 0 2.477-1.662 5.142-5.311 5.142h-4.234v5.057c0 .742-.611 1.345-1.362 1.345a1.343 1.343 0 0 1-1.338-1.345V8.69c0-.957.774-1.735 1.726-1.735Zm4.893 2.387h-3.919v5.504h3.919c1.68 0 2.852-1.161 2.852-2.749 0-1.613-1.146-2.755-2.852-2.755Zm15.563-2.387c-4.662 0-8.455 3.743-8.455 8.343s3.793 8.343 8.455 8.343 8.454-3.742 8.454-8.343c0-4.6-3.792-8.343-8.454-8.343Zm6.036 8.343c0 3.284-2.708 5.956-6.036 5.956-3.328 0-6.036-2.672-6.036-5.956 0-3.284 2.708-5.956 6.036-5.956 3.328 0 6.036 2.672 6.036 5.956Zm2.948-8.343h10.773c.689 0 1.208.537 1.208 1.248 0 .66-.542 1.198-1.208 1.198h-4.019v12.895c0 .742-.619 1.345-1.38 1.345a1.352 1.352 0 0 1-1.355-1.345V9.4h-4.019c-.677 0-1.208-.548-1.208-1.247a1.19 1.19 0 0 1 1.208-1.199Z" clip-rule="evenodd"></path>
                    <path fill="#FBFCFD" d="M15.5 0C6.94 0 0 6.94 0 15.5 0 24.06 6.94 31 15.5 31c8.561 0 15.501-6.94 15.501-15.5 0-8.56-6.94-15.5-15.5-15.5Z"></path>
                    <path fill="#006DC7" fill-rule="evenodd" d="M0 15.5C0 6.94 6.94 0 15.5 0c8.561 0 15.501 6.94 15.501 15.5 0 8.56-6.94 15.5-15.5 15.5C6.94 31 0 24.06 0 15.5Zm6.343 9.157a12.866 12.866 0 0 0 9.158 3.793c7.14 0 12.95-5.81 12.95-12.95s-5.81-12.95-12.95-12.95C8.36 2.55 2.55 8.36 2.55 15.5c0 .719.585 1.304 1.304 1.304.719 0 1.304-.585 1.304-1.304 0-5.703 4.64-10.343 10.343-10.343S25.843 9.797 25.843 15.5s-4.64 10.343-10.342 10.343c-2.294 0-4.533-.772-6.341-2.178l2.859-2.859A6.312 6.312 0 0 0 15.5 21.85a6.356 6.356 0 0 0 6.35-6.35c0-3.5-2.848-6.349-6.35-6.349-3.5 0-6.349 2.848-6.349 6.35a6.31 6.31 0 0 0 1.043 3.48l-3.85 3.851a1.291 1.291 0 0 0 0 1.825Zm9.158-5.412a3.75 3.75 0 0 0 3.745-3.745 3.75 3.75 0 0 0-3.745-3.745 3.75 3.75 0 0 0-3.746 3.745 3.75 3.75 0 0 0 3.746 3.745Z" clip-rule="evenodd"></path>
                </svg>