<?xml version="1.0" encoding="UTF-8"?>
<svg version="1.1" xmlns="http://www.w3.org/2000/svg" width="357" height="141">
<path d="M0 0 C117.81 0 235.62 0 357 0 C357 46.53 357 93.06 357 141 C239.19 141 121.38 141 0 141 C0 94.47 0 47.94 0 0 Z " fill="#FBFBFB" transform="translate(0,0)"/>
<path d="M0 0 C1.03603363 -0.00990463 2.07206726 -0.01980927 3.13949585 -0.03001404 C4.26537613 -0.02551239 5.39125641 -0.02101074 6.55125427 -0.01637268 C8.34224548 -0.02666756 8.34224548 -0.02666756 10.16941833 -0.03717041 C13.43592829 -0.05231783 16.70207986 -0.05393773 19.96861005 -0.04822803 C22.69739394 -0.04513439 25.42612632 -0.0512303 28.15490288 -0.05726677 C34.59158849 -0.07130288 41.02814135 -0.06975739 47.46482849 -0.05836487 C54.10365659 -0.04687421 60.74208115 -0.06097689 67.3808561 -0.08776134 C73.08461048 -0.10991113 78.78823812 -0.1165577 84.49203247 -0.11068493 C87.89708529 -0.1073136 91.30187921 -0.10974215 94.70689583 -0.12693596 C98.50167767 -0.14176748 102.29556351 -0.13122594 106.09031677 -0.11402893 C107.21822128 -0.1236969 108.34612579 -0.13336487 109.50820923 -0.14332581 C110.54142303 -0.13349167 111.57463684 -0.12365753 112.63916016 -0.11352539 C113.53602319 -0.11331611 114.43288622 -0.11310682 115.35692692 -0.1128912 C118.5281991 0.54877655 119.73798972 1.91165107 121.75608826 4.38768005 C123.5649937 12.04356164 120.56511745 20.83334386 118.81858826 28.26268005 C118.1676485 31.11019997 117.52591232 33.95976463 116.88499451 36.80955505 C116.7142038 37.56539886 116.54341309 38.32124268 116.3674469 39.09999084 C114.38542904 47.93014404 112.61406753 56.8022906 110.82865906 65.67384338 C108.12030124 79.10202638 105.40170065 92.53174496 102.37864685 105.89323425 C101.95678456 107.76657981 101.54763392 109.64277384 101.13890076 111.51902771 C100.88237732 112.62939392 100.62585388 113.73976013 100.36155701 114.8837738 C100.14652527 115.83437683 99.93149353 116.78497986 99.70994568 117.76438904 C98.33834522 121.53655358 96.38586365 124.37718279 92.93959045 126.51394939 C90.37098432 127.54177979 88.43498511 127.64200531 85.6703949 127.64837646 C84.64415009 127.65546127 83.61790527 127.66254608 82.56056213 127.66984558 C80.88037491 127.66612946 80.88037491 127.66612946 79.16624451 127.66233826 C77.39010269 127.67000465 77.39010269 127.67000465 75.57807922 127.67782593 C72.33430151 127.68934273 69.09068228 127.69179586 65.8468895 127.68926263 C63.1380485 127.68819244 60.42923104 127.69307739 57.72039509 127.69786805 C51.33025664 127.70895928 44.94017698 127.70940251 38.55003357 127.70335388 C31.95844244 127.69731055 25.36706458 127.70963494 18.77550983 127.73092395 C13.11425319 127.74853579 7.45306446 127.75454207 1.79178143 127.75128621 C-1.58865472 127.74947286 -4.96893865 127.75211466 -8.34934998 127.76600075 C-12.1177579 127.77829935 -15.88566839 127.77161281 -19.65406799 127.75999451 C-21.33425522 127.77146011 -21.33425522 127.77146011 -23.04838562 127.78315735 C-24.07463043 127.77614304 -25.10087524 127.76912872 -26.15821838 127.76190186 C-27.49439964 127.76215347 -27.49439964 127.76215347 -28.85757446 127.76241016 C-31.79013477 127.30190583 -33.13789023 126.46360555 -35.24391174 124.38768005 C-37.03365961 117.03316991 -35.58206099 110.75752164 -33.8427887 103.49339294 C-33.17990036 100.72264947 -32.54991582 97.94469271 -31.9178009 95.16679382 C-31.5737264 93.65501623 -31.22810876 92.14358913 -30.88105774 90.63249207 C-28.90440258 81.99484731 -27.11137402 73.31992105 -25.31520081 64.64329529 C-23.81636189 57.41363939 -22.29724846 50.18818672 -20.78285217 42.96177673 C-20.25736939 40.4519567 -19.7334944 37.9418049 -19.20973206 35.43162537 C-18.41953695 31.65009452 -17.61949219 27.87077742 -16.8115387 24.09300232 C-16.51999607 22.72276804 -16.23166464 21.35184597 -15.9467926 19.98020935 C-15.55710488 18.10639676 -15.15472315 16.23523749 -14.75172424 14.36424255 C-14.53145569 13.32348572 -14.31118713 12.28272888 -14.08424377 11.21043396 C-12.85506539 7.08150878 -11.52121691 4.29559966 -7.96426487 1.76728725 C-5.01468116 0.27142744 -3.27881558 0.00887965 0 0 Z " fill="#3AAF4A" transform="translate(39.24391174316406,2.6123199462890625)"/>
<path d="M0 0 C4.36735241 3.68798648 8.67360862 7.44288031 12.9375 11.25 C13.89527344 12.10078125 14.85304688 12.9515625 15.83984375 13.828125 C18 16 18 16 18 18 C16.36694336 19.26513672 16.36694336 19.26513672 14.08984375 20.6796875 C13.26419922 21.19660156 12.43855469 21.71351562 11.58789062 22.24609375 C10.71326172 22.78363281 9.83863281 23.32117188 8.9375 23.875 C8.08994141 24.40480469 7.24238281 24.93460938 6.36914062 25.48046875 C1.63600589 28.42634257 -3.13950473 31.26968109 -8 34 C-7.67 31.69 -7.34 29.38 -7 27 C-17.89 26.67 -28.78 26.34 -40 26 C-40 23.69 -40 21.38 -40 19 C-42.52265244 20.55962306 -45.04312322 22.12260077 -47.5625 23.6875 C-48.26697266 24.12255859 -48.97144531 24.55761719 -49.69726562 25.00585938 C-54.26070865 27.84486771 -58.6574521 30.83296441 -63 34 C-58.17917294 39.96260189 -52.77505724 44.96679794 -47 50 C-46.34 47.69 -45.68 45.38 -45 43 C-38.68307984 42.8730918 -32.36648906 42.78560415 -26.04858398 42.7253418 C-23.90002151 42.70021715 -21.75154435 42.66611139 -19.60327148 42.62280273 C-16.51264388 42.56206208 -13.42314737 42.53376956 -10.33203125 42.51171875 C-9.37351761 42.48591232 -8.41500397 42.4601059 -7.42744446 42.43351746 C-2.78796518 42.43157186 -0.68941932 42.48099044 3.11523438 45.34521484 C5.55611155 48.7833105 5.62871999 50.99355422 5 55 C4.18827395 59.55175571 3.21009324 64.05390332 2.1875 68.5625 C1.79594727 70.37137695 1.79594727 70.37137695 1.39648438 72.21679688 C1.13544922 73.38404297 0.87441406 74.55128906 0.60546875 75.75390625 C0.36981201 76.80908447 0.13415527 77.8642627 -0.10864258 78.95141602 C-2.03648688 85.54494978 -4.63663388 89.00600396 -10 93 C-12.72478152 94.36239076 -14.86840855 94.11969958 -17.91845703 94.11352539 C-19.15959259 94.11344986 -20.40072815 94.11337433 -21.67947388 94.11329651 C-23.03892049 94.1081895 -24.39836669 94.1029735 -25.7578125 94.09765625 C-27.14500884 94.09579142 -28.53220584 94.09436782 -29.91940308 94.09336853 C-33.57234512 94.08954848 -37.22524748 94.07972255 -40.87817383 94.06866455 C-44.60497501 94.05843944 -48.33178259 94.05386855 -52.05859375 94.04882812 C-59.37241394 94.03809983 -66.68620141 94.02102954 -74 94 C-74.33 96.97 -74.66 99.94 -75 103 C-81.69941179 98.28559911 -87.31886002 92.89069023 -93 87 C-91.7174268 83.1522804 -90.25367373 82.58841435 -86.87109375 80.42578125 C-85.83662109 79.75869141 -84.80214844 79.09160156 -83.73632812 78.40429688 C-82.64771484 77.71400391 -81.55910156 77.02371094 -80.4375 76.3125 C-79.34501953 75.61060547 -78.25253906 74.90871094 -77.12695312 74.18554688 C-74.42261903 72.44957695 -71.71357542 70.72147479 -69 69 C-68 72 -68 72 -69 77 C-57.78 77 -46.56 77 -35 77 C-36 82 -36 82 -37 85 C-33.57619046 82.76678381 -30.15843027 80.52463641 -26.74609375 78.27392578 C-25.58367279 77.50905539 -24.41960952 76.746675 -23.25390625 75.98681641 C-21.5816691 74.89616513 -19.91572645 73.79588176 -18.25 72.6953125 C-16.74179688 71.7055542 -16.74179688 71.7055542 -15.203125 70.69580078 C-14.47609375 70.13618652 -13.7490625 69.57657227 -13 69 C-12.76499542 66.76913453 -12.76499542 66.76913453 -14.9765625 65.01171875 C-15.85054688 64.24472656 -16.72453125 63.47773437 -17.625 62.6875 C-18.98625 61.48867187 -18.98625 61.48867187 -20.375 60.265625 C-23.22286967 57.80764225 -26.08507561 55.37796463 -29 53 C-29.66 55.31 -30.32 57.62 -31 60 C-37.17461641 60.14847404 -43.34819105 60.25727723 -49.52416992 60.32958984 C-51.62428896 60.35973742 -53.72428234 60.40066333 -55.82397461 60.45263672 C-58.84520466 60.52554078 -61.86476873 60.55947639 -64.88671875 60.5859375 C-65.82335861 60.61690521 -66.75999847 60.64787292 -67.72502136 60.67977905 C-74.06280895 60.68304093 -74.06280895 60.68304093 -76.71908569 58.74710083 C-79.10572361 56.0412247 -79.98814164 54.08031344 -80.515625 50.5078125 C-80.08832196 44.17951462 -78.30776498 37.99797009 -76.75 31.875 C-76.44964844 30.62589844 -76.14929688 29.37679687 -75.83984375 28.08984375 C-72.46576558 14.63660442 -72.46576558 14.63660442 -66.2253418 9.88916016 C-60.65115842 6.81838323 -54.38798205 7.39659018 -48.19140625 7.390625 C-46.85617586 7.37562502 -45.52096391 7.35889407 -44.18577576 7.34051514 C-40.69238378 7.2970321 -37.19924199 7.27688547 -33.70562744 7.26177979 C-30.13237835 7.24213928 -26.55939677 7.20017745 -22.98632812 7.16015625 C-15.99098673 7.08506139 -8.99565559 7.03464499 -2 7 C-1.34 4.69 -0.68 2.38 0 0 Z " fill="#FBFDFB" transform="translate(120,15)"/>
<path d="M0 0 C2.05078125 0.03255208 4.1015625 0.06510417 6.15234375 0.09765625 C7.01221806 4.98971597 7.86654736 9.88270003 8.71582031 14.77661133 C9.00532409 16.44028658 9.29632409 18.1037022 9.58886719 19.7668457 C10.00982841 22.16159961 10.42534669 24.55724487 10.83984375 26.953125 C10.97108643 27.69290085 11.1023291 28.4326767 11.23754883 29.19487 C11.86777404 32.86920241 12.30602694 36.36763716 12.15234375 40.09765625 C12.81234375 40.09765625 13.47234375 40.09765625 14.15234375 40.09765625 C14.36761719 39.29328125 14.58289063 38.48890625 14.8046875 37.66015625 C16.54601991 33.05698188 19.03942514 29.21078627 21.71484375 25.09765625 C22.80668656 23.41451442 23.8978261 21.73091619 24.98828125 20.046875 C25.52678711 19.21591309 26.06529297 18.38495117 26.62011719 17.52880859 C28.02585653 15.29835092 29.34240358 13.04286356 30.62890625 10.7421875 C31.19436157 9.76475586 31.19436157 9.76475586 31.77124023 8.76757812 C32.77637123 7.02048272 33.75250016 5.25679318 34.7265625 3.4921875 C37.52436444 0.73042809 38.15836764 0.74835479 41.921875 0.734375 C43.33416165 0.82738447 44.74586301 0.93949094 46.15234375 1.09765625 C43.61341559 13.89842588 41.05050382 26.69398388 38.40234375 39.47265625 C38.08680542 41.0040625 38.08680542 41.0040625 37.76489258 42.56640625 C37.56790771 43.51257812 37.37092285 44.45875 37.16796875 45.43359375 C36.99555664 46.2642334 36.82314453 47.09487305 36.64550781 47.95068359 C36.15234375 50.09765625 36.15234375 50.09765625 35.15234375 53.09765625 C33.17234375 53.09765625 31.19234375 53.09765625 29.15234375 53.09765625 C30.22593097 43.56356078 32.14925804 34.41737395 34.4753418 25.12036133 C34.7988562 23.81941528 34.7988562 23.81941528 35.12890625 22.4921875 C35.32564941 21.71721924 35.52239258 20.94225098 35.72509766 20.14379883 C36.25454241 17.95659098 36.25454241 17.95659098 36.15234375 15.09765625 C35.74508057 15.75137207 35.33781738 16.40508789 34.91821289 17.07861328 C30.96717681 23.41788319 27.00525279 29.75022166 23.03759766 36.07910156 C21.43271942 38.64873566 19.84149047 41.22587463 18.2578125 43.80859375 C17.47293923 45.07179046 16.68781086 46.33482872 15.90234375 47.59765625 C15.2371875 48.68046875 14.57203125 49.76328125 13.88671875 50.87890625 C13.314375 51.61109375 12.74203125 52.34328125 12.15234375 53.09765625 C11.16234375 53.09765625 10.17234375 53.09765625 9.15234375 53.09765625 C6.95619976 45.21616755 5.79444969 37.16721677 4.52734375 29.09765625 C4.29589614 27.64057362 4.06412803 26.18354186 3.83203125 24.7265625 C3.26843655 21.18417304 2.70919092 17.64111342 2.15234375 14.09765625 C-1.1805917 27.02969756 -4.0665094 40.03656658 -6.84765625 53.09765625 C-8.82765625 53.09765625 -10.80765625 53.09765625 -12.84765625 53.09765625 C-12.21673546 46.57043378 -11.17356551 40.26031346 -9.81640625 33.84765625 C-9.62042847 32.90833252 -9.42445068 31.96900879 -9.22253418 31.0012207 C-8.81106593 29.03439753 -8.39750506 27.06801107 -7.98193359 25.10205078 C-7.34386311 22.07968919 -6.71448293 19.05560519 -6.0859375 16.03125 C-5.68410748 14.11577757 -5.28178176 12.20040905 -4.87890625 10.28515625 C-4.69034058 9.37797852 -4.5017749 8.47080078 -4.30749512 7.53613281 C-4.0421698 6.28848145 -4.0421698 6.28848145 -3.77148438 5.015625 C-3.61683716 4.28110107 -3.46218994 3.54657715 -3.30285645 2.78979492 C-2.67634252 0.46082307 -2.43923337 0.12892354 0 0 Z " fill="#060606" transform="translate(178.84765625,8.90234375)"/>
<path d="M0 0 C2.51907526 1.19017179 4.69087386 2.22524487 6.8203125 4.0234375 C7.578125 6.1953125 7.578125 6.1953125 7.8203125 8.0234375 C6.5003125 9.0134375 5.1803125 10.0034375 3.8203125 11.0234375 C3.1190625 10.4046875 2.4178125 9.7859375 1.6953125 9.1484375 C-3.764794 5.11270661 -8.59821379 4.60556615 -15.1796875 5.0234375 C-18.06183637 5.90558637 -18.06183637 5.90558637 -20.1796875 7.0234375 C-20.5096875 9.6634375 -20.8396875 12.3034375 -21.1796875 15.0234375 C-15.15129137 19.00217895 -8.91884532 22.10667932 -2.3515625 25.08203125 C1.73966294 27.58614337 4.17203374 30.43032245 5.3515625 35.1484375 C5.26754169 40.18968601 4.15920695 43.05286032 0.8203125 47.0234375 C-5.10028573 52.36641639 -9.9228347 52.3099969 -17.66015625 52.23828125 C-25.03827294 51.78789677 -29.83238825 48.9696893 -35.1796875 44.0234375 C-34.5196875 42.7034375 -33.8596875 41.3834375 -33.1796875 40.0234375 C-29.0504074 40.0234375 -28.6392101 40.08659323 -25.6796875 42.4609375 C-21.39168971 45.88159028 -17.64185999 46.31775353 -12.14453125 46.24609375 C-9.24603841 45.91763631 -7.43994589 44.81834857 -5.1796875 43.0234375 C-2.91120515 40.15341028 -2.91120515 40.15341028 -2.9296875 36.6484375 C-4.36449532 32.48749483 -4.86056631 32.26200469 -8.6171875 30.3984375 C-10.46267356 29.58674091 -12.31730639 28.79558174 -14.1796875 28.0234375 C-25.64174019 22.92001634 -25.64174019 22.92001634 -29.1796875 17.0234375 C-29.87092405 12.72241008 -29.53154591 10.68805895 -27.4921875 6.8359375 C-20.29347105 -1.91925818 -10.67226374 -3.27772228 0 0 Z " fill="#070707" transform="translate(239.1796875,70.9765625)"/>
<path d="M0 0 C3.00197464 1.80118478 4.45166366 2.90332732 6 6 C6.78893565 12.69468252 6.47401513 17.89216838 2.40625 23.40625 C-0.27555296 26.44562669 -2.28072308 27.74614703 -6.328125 28.34375 C-10.81037245 28.61214805 -13.99989649 28.533599 -17.5625 25.625 C-21.43300309 21.45676591 -21.45446493 18.45706185 -21.41796875 12.90234375 C-20.74886098 8.25610941 -18.41910113 5.12894806 -15 2 C-10.40234822 -0.93979831 -5.26886721 -0.65568125 0 0 Z " fill="#FBFBFB" transform="translate(250,29)"/>
<path d="M0 0 C1.98 0 3.96 0 6 0 C7.59324826 5.21426702 8.67587979 10.3739854 9.5625 15.75 C10.48505504 21.44263081 10.48505504 21.44263081 12 27 C12.4439209 26.2886792 12.8878418 25.5773584 13.34521484 24.84448242 C14.99605567 22.19972395 16.64730433 19.5552207 18.29882812 16.91088867 C19.36359579 15.20576278 20.4278942 13.50034389 21.4921875 11.79492188 C22.1625 10.72177734 22.8328125 9.64863281 23.5234375 8.54296875 C24.450354 7.0583313 24.450354 7.0583313 25.39599609 5.54370117 C26.57162268 3.67933992 27.7773999 1.83390015 29 0 C32.625 -0.1875 32.625 -0.1875 36 0 C30.80836302 10.1225068 24.72286397 19.70891608 18.67382812 29.33300781 C17.58743916 31.06400446 16.50515728 32.79758812 15.42773438 34.53417969 C13.98284036 36.86268917 12.52476913 39.18237379 11.0625 41.5 C10.4269519 42.53084717 10.4269519 42.53084717 9.77856445 43.58251953 C7.00631166 47.92733041 4.27338127 51.06728737 0 54 C-2.5546875 54.48828125 -2.5546875 54.48828125 -4.875 54.3125 C-5.65617188 54.26738281 -6.43734375 54.22226563 -7.2421875 54.17578125 C-8.11230469 54.08876953 -8.11230469 54.08876953 -9 54 C-8.505 51.03 -8.505 51.03 -8 48 C-6.96875 48.020625 -5.9375 48.04125 -4.875 48.0625 C-1.21301308 47.51693868 0.28565296 46.04107674 2.5 43.125 C6.65953998 37.37379932 4.52414955 30.46530219 3.53271484 23.91064453 C3.02537499 20.76905888 2.48775906 17.6343378 1.9375 14.5 C1.56942485 12.38579672 1.20343889 10.27122834 0.83984375 8.15625 C0.67863037 7.23650391 0.51741699 6.31675781 0.35131836 5.36914062 C0 3 0 3 0 0 Z " fill="#060606" transform="translate(247,85)"/>
<path d="M0 0 C6.06772298 2.53061433 9.37514094 6.0019178 12 12 C13.33011424 19.19661808 10.97195491 25.05246543 7 31 C3.14693738 35.31704399 -1.31833014 37.67380456 -7.05078125 38.37109375 C-13.36019006 38.49954878 -18.30918017 38.43485797 -23.4765625 34.54296875 C-27.16708515 30.8051317 -28.14763753 26.64317664 -28.375 21.5625 C-28.13890032 15.53682562 -26.57592803 10.87407658 -22.6875 6.25 C-21.800625 5.5075 -20.91375 4.765 -20 4 C-19.195625 3.236875 -18.39125 2.47375 -17.5625 1.6875 C-11.94949201 -0.97129326 -6.10503081 -0.77006639 0 0 Z M-20.375 11.5625 C-22.66970127 16.41667577 -22.93186827 20.72202339 -22 26 C-20.32929956 29.16878239 -18.25079532 31.37460234 -15 33 C-10.10366692 33.53718762 -6.1322441 33.52418708 -1.625 31.4375 C3.39436485 26.77666121 5.22711914 23.13334918 5.5 16.375 C5.36611077 12.62610161 5.10034854 11.16724757 3.125 7.875 C-0.81194196 4.40122768 -4.14081716 4.66268608 -9.23828125 4.72265625 C-14.43664786 5.24469872 -16.95805668 7.875798 -20.375 11.5625 Z " fill="#090909" transform="translate(251,24)"/>
<path d="M0 0 C5.62451991 2.27053484 7.83463175 4.72438625 11 10 C11 13.96 11 17.92 11 22 C2.09 22 -6.82 22 -16 22 C-15.67 20.35 -15.34 18.7 -15 17 C-8.07 17 -1.14 17 6 17 C4.65658259 10.78502062 4.65658259 10.78502062 1 7 C-2.52339198 5.23830401 -6.16400159 5.33559505 -10 6 C-13.67187465 8.05680197 -16.185057 10.72443704 -18.4375 14.25 C-19.53915003 19.63584457 -19.8873243 24.87042169 -17.75 30 C-15.44708588 32.63190185 -13.36535944 33.80566973 -9.88671875 34.30078125 C-4.48395137 34.32957042 -0.81811552 33.46031431 4 31 C4.33 32.65 4.66 34.3 5 36 C-0.98752286 39.17069768 -6.1797433 41.18508007 -13 40 C-18.85643025 38.151694 -22.06941985 35.50949067 -25 30 C-27.08448531 23.74654407 -26.71744751 17.78065398 -24.0625 11.75 C-19.07186422 2.64352379 -10.01243237 -1.30088537 0 0 Z " fill="#090909" transform="translate(324,23)"/>
<path d="M0 0 C2 1.6875 2 1.6875 4 4.6875 C4.23979358 12.07806109 2.06238044 19.6575643 0.4375 26.8125 C0.08655273 28.3903125 0.08655273 28.3903125 -0.27148438 30 C-0.84249125 32.56370435 -1.41873819 35.12610496 -2 37.6875 C-3.98 37.6875 -5.96 37.6875 -8 37.6875 C-7.52892166 30.63756891 -6.26204079 23.95202483 -4.62109375 17.08203125 C-3.96361479 13.48863994 -3.68423018 10.32997157 -4 6.6875 C-7.80644288 4.14987141 -9.47357697 4.16807441 -14 4.6875 C-17.77261229 6.51932799 -21.03556512 8.72306512 -24 11.6875 C-24.7275061 14.28011354 -24.7275061 14.28011354 -25.25390625 17.31640625 C-25.46853516 18.43337891 -25.68316406 19.55035156 -25.90429688 20.70117188 C-26.12150391 21.87228516 -26.33871094 23.04339844 -26.5625 24.25 C-26.99796375 26.56443269 -27.43659136 28.87827312 -27.87890625 31.19140625 C-28.0704126 32.22080322 -28.26191895 33.2502002 -28.45922852 34.31079102 C-29 36.6875 -29 36.6875 -30 37.6875 C-31.99958364 37.72830783 -34.00045254 37.73004356 -36 37.6875 C-30.64974842 10.52346307 -30.64974842 10.52346307 -28 -0.3125 C-26.02 -0.3125 -24.04 -0.3125 -22 -0.3125 C-21.67 0.6775 -21.34 1.6675 -21 2.6875 C-19.88625 2.0275 -18.7725 1.3675 -17.625 0.6875 C-11.83953711 -2.20009338 -5.95833771 -2.60677275 0 0 Z " fill="#060606" transform="translate(315,85.3125)"/>
<path d="M0 0 C1.4540625 0.0309375 1.4540625 0.0309375 2.9375 0.0625 C2.9375 1.3825 2.9375 2.7025 2.9375 4.0625 C4.29875 3.0725 4.29875 3.0725 5.6875 2.0625 C10.82962672 -0.85940093 16.19587963 -0.84281773 21.9375 0.0625 C25.03546143 1.36145971 25.80208494 2.27459701 27.9375 5.0625 C28.26115006 9.81823952 27.68783363 14.02458897 26.625 18.65234375 C26.35429687 19.84794922 26.08359375 21.04355469 25.8046875 22.27539062 C25.51851562 23.50451172 25.23234375 24.73363281 24.9375 26 C24.50824219 27.88428711 24.50824219 27.88428711 24.0703125 29.80664062 C23.36607905 32.89353058 22.65495298 35.97866066 21.9375 39.0625 C19.9575 39.0625 17.9775 39.0625 15.9375 39.0625 C16.3091776 33.3848043 17.12184145 28.0256357 18.5 22.5 C19.80265191 17.16292128 20.21592187 12.53813006 19.9375 7.0625 C16.38610493 5.28680246 12.80658808 5.45256414 8.9375 6.0625 C5.51542337 7.44903105 3.23645586 9.17114181 0.9375 12.0625 C-0.66613889 15.9680412 -1.34572287 19.91474967 -2.0625 24.0625 C-2.61788425 26.64737247 -3.18033957 29.23073619 -3.75 31.8125 C-4.18957243 33.89539705 -4.62783483 35.97857337 -5.0625 38.0625 C-7.0425 38.0625 -9.0225 38.0625 -11.0625 38.0625 C-9.9286565 29.39790486 -8.26841049 20.86667167 -6.5 12.3125 C-6.27803955 11.22839844 -6.0560791 10.14429687 -5.82739258 9.02734375 C-5.61493896 8.01285156 -5.40248535 6.99835938 -5.18359375 5.953125 C-4.9920874 5.03563477 -4.80058105 4.11814453 -4.60327148 3.17285156 C-3.75450703 -0.13943733 -3.58109406 0.07308355 0 0 Z " fill="#090909" transform="translate(176.0625,83.9375)"/>
<path d="M0 0 C1.98 0 3.96 0 6 0 C7.59007287 6.13109179 8.90556527 12.28539933 10.125 18.5 C10.30675781 19.4178125 10.48851562 20.335625 10.67578125 21.28125 C11.11896395 23.52048892 11.56033345 25.76006853 12 28 C12.33209473 27.47156494 12.66418945 26.94312988 13.00634766 26.39868164 C14.54464907 23.95249959 16.08481576 21.50749697 17.625 19.0625 C18.14707031 18.23169922 18.66914063 17.40089844 19.20703125 16.54492188 C20.26454222 14.86726558 21.32724243 13.19286949 22.39501953 11.52172852 C23.47912553 9.81839252 24.54749649 8.10495428 25.60107422 6.38256836 C26.11428223 5.5653833 26.62749023 4.74819824 27.15625 3.90625 C27.61064453 3.16826172 28.06503906 2.43027344 28.53320312 1.66992188 C30 0 30 0 33.875 -0.5625 C34.90625 -0.376875 35.9375 -0.19125 37 0 C33.67371314 7.04290331 29.65766994 13.54538641 25.5 20.125 C24.83613281 21.18332031 24.17226563 22.24164063 23.48828125 23.33203125 C22.21610014 25.35584032 20.93405515 27.37349397 19.640625 29.38378906 C18.02988093 31.87363509 18.02988093 31.87363509 16.921875 34.07714844 C16.03125 35.7421875 16.03125 35.7421875 14 38 C11.36 38 8.72 38 6 38 C4.02 25.46 2.04 12.92 0 0 Z " fill="#050505" transform="translate(265,24)"/>
<path d="M0 0 C1.9140625 1.10546875 1.9140625 1.10546875 4.7890625 3.10546875 C4.7890625 4.42546875 4.7890625 5.74546875 4.7890625 7.10546875 C3.7990625 7.76546875 2.8090625 8.42546875 1.7890625 9.10546875 C1.1496875 8.44546875 0.5103125 7.78546875 -0.1484375 7.10546875 C-4.2514215 4.42596899 -7.43347892 4.14492152 -12.2109375 5.10546875 C-17.28370098 8.20549088 -19.46061711 11.46554749 -21.2109375 17.10546875 C-21.72722376 22.09623591 -21.37943705 25.14484431 -18.2109375 29.10546875 C-14.78917061 31.67179392 -11.36453329 31.46981926 -7.2109375 31.10546875 C-6.3240625 30.56921875 -5.4371875 30.03296875 -4.5234375 29.48046875 C-3.7603125 29.02671875 -2.9971875 28.57296875 -2.2109375 28.10546875 C0.1015625 28.91796875 0.1015625 28.91796875 1.7890625 30.10546875 C0.65215117 33.51620275 0.2730512 33.73693441 -2.7734375 35.29296875 C-7.84874277 37.63611325 -11.98986295 38.09882933 -17.3515625 36.4453125 C-21.5298009 34.65795496 -24.55110398 32.52915674 -26.58203125 28.28515625 C-28.45762302 21.78465807 -28.20383581 15.2281793 -25.1484375 9.16796875 C-19.77985764 0.74036903 -9.69400195 -3.92213153 0 0 Z " fill="#0A0A0A" transform="translate(348.2109375,85.89453125)"/>
<path d="M0 0 C1.4540625 0.0309375 1.4540625 0.0309375 2.9375 0.0625 C1.59305495 7.75030699 0.05264845 15.37839827 -1.625 23 C-1.84607422 24.01384766 -2.06714844 25.02769531 -2.29492188 26.07226562 C-4.04822838 34.08662438 -4.04822838 34.08662438 -5.0625 38.0625 C-7.0425 38.0625 -9.0225 38.0625 -11.0625 38.0625 C-10.56127526 30.16821035 -8.92154487 22.80979723 -7.046875 15.15625 C-6.04195039 11.0455395 -5.20968823 6.91423299 -4.45703125 2.75 C-3.75289479 -0.26175197 -3.24081116 0.066139 0 0 Z " fill="#070808" transform="translate(164.0625,83.9375)"/>
<path d="M0 0 C1.98 0 3.96 0 6 0 C5.67 2.31 5.34 4.62 5 7 C3.02 7 1.04 7 -1 7 C-0.67 4.69 -0.34 2.38 0 0 Z " fill="#090909" transform="translate(163,73)"/>
<path d="M0 0 C1.98 0 3.96 0 6 0 C5.67 0.99 5.34 1.98 5 3 C3.68 3 2.36 3 1 3 C0.34 4.32 -0.32 5.64 -1 7 C-1.33 6.34 -1.66 5.68 -2 5 C-1.0625 2.375 -1.0625 2.375 0 0 Z " fill="#353535" transform="translate(161,84)"/>
<path d="M0 0 C0.33 0 0.66 0 1 0 C0.67 2.97 0.34 5.94 0 9 C-0.99 8.34 -1.98 7.68 -3 7 C-1.125 2.25 -1.125 2.25 0 0 Z " fill="#D2D2D2" transform="translate(215,22)"/>
</svg>
