<?xml version="1.0" encoding="UTF-8"?>
<svg version="1.1" xmlns="http://www.w3.org/2000/svg" width="1200" height="306">
<path d="M0 0 C396 0 792 0 1200 0 C1200 100.98 1200 201.96 1200 306 C804 306 408 306 0 306 C0 205.02 0 104.04 0 0 Z " fill="#FEFEFE" transform="translate(0,0)"/>
<path d="M0 0 C101.31 0 202.62 0 307 0 C307 100.98 307 201.96 307 306 C205.69 306 104.38 306 0 306 C0 205.02 0 104.04 0 0 Z " fill="#FC253D" transform="translate(0,0)"/>
<path d="M0 0 C3.33990879 2.03211318 6.1735512 4.30595104 9 7 C9.54011719 7.50015625 10.08023438 8.0003125 10.63671875 8.515625 C18.26154837 16.44064477 23.27685958 28.1275203 24 39 C24.07951904 40.15266357 24.07951904 40.15266357 24.16064453 41.32861328 C25.20683888 58.87778556 22.90616346 74.63590371 11.41015625 88.51171875 C2.71998442 97.48358172 -7.56103857 102.07645322 -20.0625 102.5 C-30.11302292 102.16756815 -38.63062475 98.92610456 -46 92 C-46.66 91.01 -47.32 90.02 -48 89 C-48.33 103.52 -48.66 118.04 -49 133 C-57.58 133 -66.16 133 -75 133 C-75 88.45 -75 43.9 -75 -2 C-66.42 -2 -57.84 -2 -49 -2 C-48.67 1.63 -48.34 5.26 -48 9 C-46.824375 7.4221875 -46.824375 7.4221875 -45.625 5.8125 C-34.62892625 -7.12560109 -14.299284 -6.53461903 0 0 Z " fill="#020202" transform="translate(669,125)"/>
<path d="M0 0 C8.83699835 7.59015555 13.04125794 17.53488622 14 29 C14.16742756 33.28717287 14.20785228 37.57324461 14.24609375 41.86328125 C14.27903079 44.38476911 14.31224246 46.9062534 14.34570312 49.42773438 C14.39304279 53.37066216 14.43751072 57.31357531 14.47680664 61.2565918 C14.51676238 65.0839691 14.56824179 68.91106323 14.62109375 72.73828125 C14.6295079 73.90321609 14.63792206 75.06815094 14.64659119 76.26838684 C14.66323318 77.38291733 14.67987518 78.49744781 14.69702148 79.64575195 C14.71248268 81.09181572 14.71248268 81.09181572 14.72825623 82.5670929 C15.11257175 87.42210567 16.12879215 92.20835682 17 97 C8.75 97 0.5 97 -8 97 C-8.99 91.555 -8.99 91.555 -10 86 C-10.9075 87.051875 -11.815 88.10375 -12.75 89.1875 C-20.55681831 97.05817776 -31.40670616 99.22865317 -42.0625 99.3125 C-54.17312644 99.3228001 -63.09517544 96.52856436 -72 88 C-78.08652815 81.15451602 -79.48988988 74.24183882 -79.3046875 65.1875 C-78.68849235 58.74115073 -76.11459476 54.79731998 -71.5 50.375 C-59.57680447 40.73543676 -44.89126902 37.67461529 -30.125 35.25 C-29.352771 35.12214111 -28.58054199 34.99428223 -27.78491211 34.86254883 C-22.47301893 34.05326393 -17.37250974 33.89319066 -12 34 C-13.40350907 22.51851445 -13.40350907 22.51851445 -20.671875 13.875 C-24.58842563 11.6684926 -27.03211252 11.46367571 -31.5 11.5 C-32.7684375 11.4896875 -34.036875 11.479375 -35.34375 11.46875 C-40.86524464 12.27101845 -43.90821157 14.61313362 -47.3125 18.9375 C-49.29584359 22.17286146 -49.29584359 22.17286146 -50 27 C-57.92 27 -65.84 27 -74 27 C-74 17.35288647 -70.54635931 10.84404426 -64.015625 3.81640625 C-47.38721454 -11.16849853 -18.43635815 -12.79322939 0 0 Z " fill="#050505" transform="translate(957,128)"/>
<path d="M0 0 C0.79486816 0.00821777 1.58973633 0.01643555 2.40869141 0.02490234 C15.18836212 0.26909987 26.78331042 4.23957025 36.2578125 13.22265625 C48.59500568 27.08197066 51.0625 42.11505991 51.0625 60.25 C26.3125 60.25 1.5625 60.25 -23.9375 60.25 C-19.16968497 75.02394925 -19.16968497 75.02394925 -7.8125 84 C-1.38607049 86.52866031 5.60929146 86.1570655 11.9375 83.5625 C15.6545311 81.69401031 18.32086184 79.40703788 21.0625 76.25 C23.0625 74.25 23.0625 74.25 25.76806641 74.02294922 C26.88874512 74.03342285 28.00942383 74.04389648 29.1640625 74.0546875 C30.37578125 74.06113281 31.5875 74.06757813 32.8359375 74.07421875 C34.10695313 74.09097656 35.37796875 74.10773438 36.6875 74.125 C37.96625 74.13402344 39.245 74.14304687 40.5625 74.15234375 C43.72935167 74.17597697 46.89583424 74.20892371 50.0625 74.25 C46.37626684 85.88624282 38.04060244 95.17613308 27.375 101 C14.04803598 107.16499251 -1.81388511 108.4423122 -15.9375 104.25 C-29.45177631 99.15094588 -39.00102546 90.36310301 -44.9375 77.25 C-45.80375 75.5175 -45.80375 75.5175 -46.6875 73.75 C-52.11929318 58.5409791 -51.41700889 41.81946096 -44.8125 27.125 C-38.9222993 16.12288338 -28.65578075 6.72573223 -16.9375 2.25 C-11.16151385 0.5385967 -6.00841477 -0.07553728 0 0 Z " fill="#040404" transform="translate(754.9375,120.75)"/>
<path d="M0 0 C1.25574829 0.00845947 1.25574829 0.00845947 2.53686523 0.01708984 C16.3184644 0.2853642 27.83438857 4.55612438 37.8125 14.3125 C49.39515011 28.36230653 51.8125 42.35923132 51.8125 60.3125 C27.0625 60.3125 2.3125 60.3125 -23.1875 60.3125 C-18.92109886 74.8957704 -18.92109886 74.8957704 -8.0625 83.8125 C-1.35762523 86.3482448 6.02457612 86.84087143 12.7265625 84.13671875 C16.41533351 82.03118131 19.15500628 80.28111034 21.56518555 76.73046875 C23.8125 74.3125 23.8125 74.3125 26.65332031 73.74487305 C28.25578613 73.78414917 28.25578613 73.78414917 29.890625 73.82421875 C31.63085938 73.84838867 31.63085938 73.84838867 33.40625 73.87304688 C34.6128125 73.91494141 35.819375 73.95683594 37.0625 74 C38.28453125 74.02255859 39.5065625 74.04511719 40.765625 74.06835938 C43.78248502 74.12728242 46.79687515 74.20950735 49.8125 74.3125 C47.8889671 84.74309256 41.18411363 92.14580433 32.8125 98.3125 C18.98771177 106.82988272 3.36081547 108.53496772 -12.5078125 105.12109375 C-25.46418257 101.21151852 -35.83922952 93.04152329 -42.6484375 81.359375 C-49.97564174 66.85374223 -51.9921849 50.9559836 -47.5625 35.125 C-44.62722847 27.12820017 -40.62296754 19.98184045 -34.1875 14.3125 C-33.61386719 13.75949219 -33.04023437 13.20648438 -32.44921875 12.63671875 C-23.19414621 3.97515788 -12.63023213 -0.08899006 0 0 Z " fill="#040404" transform="translate(1143.1875,120.6875)"/>
<path d="M0 0 C9.24 0 18.48 0 28 0 C29.8914131 4.41329724 31.51869071 8.34996814 32.875 12.875 C33.21789062 14.01066406 33.56078125 15.14632812 33.9140625 16.31640625 C34.64650107 18.80090112 35.37027333 21.28796514 36.0859375 23.77734375 C36.47333878 25.12257441 36.86137976 26.46762098 37.25 27.8125 C37.45004639 28.50529053 37.65009277 29.19808105 37.85620117 29.91186523 C40.08494577 37.50034995 42.640041 44.97970553 45.23339844 52.45043945 C47.32540061 58.5784076 48.9120848 64.61517184 50 71 C50.66 71 51.32 71 52 71 C52.2475 69.741875 52.495 68.48375 52.75 67.1875 C53.53036617 63.66766656 54.53742049 60.37095918 55.8125 57 C57.59363851 52.28328136 59.0523049 47.53055251 60.4375 42.6875 C61.95852912 37.38579389 63.59797895 32.18136769 65.5 27 C67.97518331 20.25590877 70.00424975 13.42075467 71.984375 6.51953125 C72.61503879 4.33403867 73.28068681 2.15793957 74 0 C82.91 0 91.82 0 101 0 C98.81978876 7.42886794 96.46047542 14.55574361 93.39648438 21.66162109 C91.99965 25.00083669 90.71083114 28.36136436 89.44921875 31.75390625 C88.9181084 33.1777051 88.38684734 34.60144773 87.85546875 36.02514648 C87.56212646 36.81218964 87.26878418 37.59923279 86.96655273 38.41012573 C83.82543858 46.82672881 80.66052263 55.23444411 77.49682617 63.64257812 C76.62814581 65.95301196 75.76062121 68.26388069 74.89428711 70.57519531 C70.44556798 82.44182232 65.95981373 94.29344752 61.23828125 106.0546875 C60.89862839 106.91659698 60.55897552 107.77850647 60.20903015 108.66653442 C56.44240438 117.92679708 52.22056609 127.22421962 43 132 C32.59480834 136.37850465 21.02723746 135.21206226 10 135 C10 128.07 10 121.14 10 114 C19.6875 113.8125 19.6875 113.8125 22.71362305 113.79223633 C27.24643379 113.6328458 29.3937412 113.47618028 33.05859375 110.59765625 C35.7978271 106.93248487 37.11462123 104.68780455 36.79931641 100.04492188 C35.9434288 94.67063842 33.80287274 89.7027158 31.8359375 84.65625 C31.41129715 83.54960495 30.9866568 82.4429599 30.54914856 81.30278015 C29.16454622 77.69920199 27.76976869 74.09965393 26.375 70.5 C25.42157126 68.02281571 24.46885732 65.5453562 23.5168457 63.06762695 C20.68750131 55.70803083 17.84468411 48.35368121 15 41 C14.17912189 38.87682026 13.3583172 36.75361213 12.53759766 34.63037109 C12.15607544 33.64338226 11.77455322 32.65639343 11.38146973 31.63949585 C9.97384172 27.99645289 8.56801485 24.35271591 7.16217041 20.70898438 C6.20109303 18.22266533 5.23539251 15.73818014 4.26904297 13.25390625 C3.69357029 11.76697143 3.11820509 10.27999501 2.54296875 8.79296875 C2.28151566 8.12480637 2.02006256 7.45664398 1.75068665 6.76823425 C0 2.2269834 0 2.2269834 0 0 Z " fill="#040404" transform="translate(481,123)"/>
<path d="M0 0 C36.63 0 73.26 0 111 0 C111 6.93 111 13.86 111 21 C97.14 21 83.28 21 69 21 C69 59.28 69 97.56 69 137 C60.09 137 51.18 137 42 137 C42 98.72 42 60.44 42 21 C28.14 21 14.28 21 0 21 C0 14.07 0 7.14 0 0 Z " fill="#010101" transform="translate(382,88)"/>
<path d="M0 0 C8.25305119 6.00357334 13.60821774 12.47058944 17.1875 22.1875 C17.6825 26.1475 17.6825 26.1475 18.1875 30.1875 C9.9375 30.1875 1.6875 30.1875 -6.8125 30.1875 C-7.8025 27.8775 -8.7925 25.5675 -9.8125 23.1875 C-13.9835813 18.06302869 -18.96024869 14.67997531 -25.5625 13.8359375 C-32.61633851 13.62508907 -37.00175955 14.7782939 -42.4375 19.4375 C-51.02676783 29.38296801 -51.56292682 39.14146436 -51.00341797 51.72460938 C-50.34994586 60.15456675 -47.73313498 67.61530047 -41.72265625 73.6640625 C-36.49337717 77.83465318 -30.85904488 78.76796549 -24.26953125 78.53515625 C-18.83984902 77.76688643 -14.62174156 75.40851724 -11 71.3125 C-8.45566928 67.8402102 -8.45566928 67.8402102 -5.8125 62.1875 C2.4375 62.1875 10.6875 62.1875 19.1875 62.1875 C17.39404812 72.94821129 12.1857196 83.64057203 3.1875 90.1875 C-10.58531271 98.28061524 -25.52873878 101.43568563 -41.35546875 98.5390625 C-53.99864405 95.00441134 -64.27829052 88.05111357 -71.2734375 76.84765625 C-72.615772 74.33789751 -73.7430336 71.82500965 -74.8125 69.1875 C-75.20566406 68.22199219 -75.59882812 67.25648438 -76.00390625 66.26171875 C-81.48178418 50.93511257 -79.928173 33.55650685 -73.125 18.875 C-66.73670808 7.10050117 -57.50578101 -0.59989862 -44.9375 -5.25 C-29.9380129 -9.38964339 -13.28115497 -8.27023507 0 0 Z " fill="#040404" transform="translate(1064.8125,127.8125)"/>
<path d="M0 0 C9.57 0 19.14 0 29 0 C29 52.8 29 105.6 29 160 C19.43 160 9.86 160 0 160 C0 107.2 0 54.4 0 0 Z " fill="#FEFDFD" transform="translate(80,73)"/>
<path d="M0 0 C1.06347656 0.00322266 2.12695312 0.00644531 3.22265625 0.00976562 C4.86427734 0.02233398 4.86427734 0.02233398 6.5390625 0.03515625 C7.65667969 0.03966797 8.77429688 0.04417969 9.92578125 0.04882812 C12.67189816 0.06056367 15.41798735 0.07849759 18.1640625 0.09765625 C18.1640625 6.36765625 18.1640625 12.63765625 18.1640625 19.09765625 C15.9365625 19.22140625 13.7090625 19.34515625 11.4140625 19.47265625 C5.46960952 19.70891681 5.46960952 19.70891681 0.1640625 22.09765625 C-1.12040669 24.66659463 -1.16570894 26.86341962 -1.3984375 29.72265625 C-1.5428125 31.49640625 -1.6871875 33.27015625 -1.8359375 35.09765625 C5.0940625 35.09765625 12.0240625 35.09765625 19.1640625 35.09765625 C19.1640625 41.03765625 19.1640625 46.97765625 19.1640625 53.09765625 C12.2340625 53.09765625 5.3040625 53.09765625 -1.8359375 53.09765625 C-1.8359375 80.81765625 -1.8359375 108.53765625 -1.8359375 137.09765625 C-10.4159375 137.09765625 -18.9959375 137.09765625 -27.8359375 137.09765625 C-27.8359375 109.37765625 -27.8359375 81.65765625 -27.8359375 53.09765625 C-32.4559375 53.09765625 -37.0759375 53.09765625 -41.8359375 53.09765625 C-41.8359375 47.15765625 -41.8359375 41.21765625 -41.8359375 35.09765625 C-37.2159375 35.09765625 -32.5959375 35.09765625 -27.8359375 35.09765625 C-27.8978125 32.99390625 -27.9596875 30.89015625 -28.0234375 28.72265625 C-28.00797348 21.06796532 -27.30116511 14.04156335 -22.6484375 7.72265625 C-16.01927707 1.53543985 -8.94895487 -0.04811266 0 0 Z " fill="#030303" transform="translate(855.8359375,87.90234375)"/>
<path d="M0 0 C7.15141694 3.96078476 11.8709532 11.70523913 14.12109375 19.42578125 C16.17368888 31.41904369 15.64323241 45.59178922 8.7578125 55.94921875 C4.59440009 60.90224385 0.65341011 64.76753516 -6.01171875 65.45703125 C-13.15486348 65.71730778 -17.57161426 64.68467911 -23.03125 59.875 C-32.26708638 49.42392199 -33.434421 37.72289079 -32.61767578 24.26269531 C-31.64199031 14.68610578 -26.69115779 6.68538391 -19.34375 0.6875 C-13.5439011 -2.18664734 -6.03859933 -2.03900757 0 0 Z " fill="#FBFBFB" transform="translate(651.40625,141.8125)"/>
<path d="M0 0 C1.32 0 2.64 0 4 0 C4 100.98 4 201.96 4 306 C2.68 306 1.36 306 0 306 C0 205.02 0 104.04 0 0 Z " fill="#EA4658" transform="translate(0,0)"/>
<path d="M0 0 C0.81418093 17.55012225 0.81418093 17.55012225 -4.8046875 24.10546875 C-11.84502937 30.54804574 -17.96687457 31.56442372 -27.3828125 31.3125 C-32.21102656 30.89537568 -34.34440386 30.15710576 -38 27 C-41.3004016 22.31555902 -41.61578345 18.54205101 -41 13 C-36.60711337 6.38565362 -30.09443952 4.06632559 -22.56689453 2.49072266 C-7.13702604 -0.2784466 -7.13702604 -0.2784466 0 0 Z " fill="#F8F8F8" transform="translate(946,178)"/>
<path d="M0 0 C5.0063161 3.0188301 9.47747 7.91807235 11.5 13.4375 C11.5 16.0775 11.5 18.7175 11.5 21.4375 C-4.34 21.4375 -20.18 21.4375 -36.5 21.4375 C-34.41155081 12.03947863 -32.43150927 7.13354711 -24.8125 1.5 C-17.82444865 -2.85105084 -7.59868896 -3.45260819 0 0 Z " fill="#F9F9F9" transform="translate(1156.5,141.5625)"/>
<path d="M0 0 C5.52450332 2.84379414 10.15187986 7.58063959 12.125 13.5 C12.125 16.14 12.125 18.78 12.125 21.5 C-3.385 21.5 -18.895 21.5 -34.875 21.5 C-34.875 14.75859402 -33.86385676 10.72043888 -29.26171875 5.76171875 C-27.53257279 4.21660606 -25.76487519 2.84214587 -23.875 1.5 C-22.575625 0.571875 -22.575625 0.571875 -21.25 -0.375 C-14.42657006 -2.64947665 -6.74467031 -2.60300312 0 0 Z " fill="#F9F9F9" transform="translate(766.875,141.5)"/>
<path d="M0 0 C0.66 0 1.32 0 2 0 C2.33 54.12 2.66 108.24 3 164 C2.34 164 1.68 164 1 164 C-1.40673851 160.38989224 -1.23593477 158.81761742 -1.20254517 154.52705383 C-1.20017046 153.86703863 -1.19779576 153.20702342 -1.1953491 152.52700776 C-1.18491639 150.31120937 -1.16003848 148.09580788 -1.13525391 145.88012695 C-1.12482982 144.29350318 -1.11529422 142.70687336 -1.10658264 141.12023926 C-1.08038168 136.8084684 -1.04171593 132.49688785 -1.00085878 128.18523431 C-0.96028044 123.68092836 -0.93110071 119.17654915 -0.90072632 114.67216492 C-0.8414552 106.14048307 -0.77189147 97.60891723 -0.69865549 89.07734507 C-0.61578547 79.36530414 -0.54435056 69.65318973 -0.47388959 59.94105208 C-0.32867566 39.96059311 -0.16905775 19.98027051 0 0 Z " fill="#E82A3F" transform="translate(77,72)"/>
<path d="M0 0 C3.63 0 7.26 0 11 0 C11 52.8 11 105.6 11 160 C7.04 160 3.08 160 -1 160 C-1 159.67 -1 159.34 -1 159 C2.3 159 5.6 159 9 159 C9 107.19 9 55.38 9 2 C6.03 2 3.06 2 0 2 C0 1.34 0 0.68 0 0 Z " fill="#FEEDF4" transform="translate(98,73)"/>
<path d="M0 0 C0.66 0.33 1.32 0.66 2 1 C1.01 1.33 0.02 1.66 -1 2 C-1.33 2.99 -1.66 3.98 -2 5 C-2.66 4.34 -3.32 3.68 -4 3 C-2.68 2.01 -1.36 1.02 0 0 Z M-6 4 C-5.34 4.33 -4.68 4.66 -4 5 C-7.465 7.97 -7.465 7.97 -11 11 C-9.38262276 7.76524552 -8.52370777 6.29427979 -6 4 Z " fill="#1F1F1F" transform="translate(901,126)"/>
</svg>
